<svg xmlns="http://www.w3.org/2000/svg" viewBox="0 0 512 512" style="height: 512px; width: 512px;"><path d="M0 0h512v512H0z" fill="#000" fill-opacity="1"></path><g class="" transform="translate(0,0)" style=""><path d="M294.3 53.6l-81.2.24-79.5 70.56 18.3 70.5L201 187l-25.8 74.7 38.7-22.4 11 35.9 30.2-37.1 30.2 38.8 18.5-38.5 31.7 21.1-25.4-71.9 46.4 6.1 18.9-67.1c-27.1-24.3-54.1-48.7-81.1-73zm-88.8 61.2c13.3-.1 28.3 9 35.9 27l-61.9 9.3c-3.9-18.1 11-35.7 26-36.3zm104.5 0c15.1.1 28.1 12.1 26 36.3l-62-9.3c7.7-18 22.7-27.1 36-27zm-54.5 38.5l25.6 56.7h-47.9zM93.26 288.5L51.3 317.7l207.3 72.7L466 317.3l-41-28.8c-54.7 9.2-120.6-14.4-150.7 31.8h-31.4c-41-45.7-104.5-25.2-149.64-31.8zM29 329.8l-6.17 17.6 190.67 66.7v17.8h91.6v-18.7c62.3-21.8 125.5-43.9 188.1-65.8l-6.2-17.6-205.7 71.9 4.1 11.5h-54.8l4.1-11.5c-68.6-24-137.15-48-205.7-71.9z" fill="#fff" fill-opacity="1"></path></g><g class="" transform="translate(-1,313)" style=""><g transform="translate(9.6, 9.6) scale(0.7, 0.7) rotate(0, 128, 128)"><circle cx="128" cy="128" r="128" fill="#c70000" fill-opacity="1"></circle><circle stroke="#fff" stroke-opacity="1" fill="#c70000" fill-opacity="1" stroke-width="18" cx="128" cy="128" r="101"></circle><path fill="#fff" fill-opacity="1" d="M129.7 128.6q-8.6 0-12.9 5.6-4.2 5.5-4.2 16.6 0 11.1 4.2 16.7 4.3 5.5 12.9 5.5 8.6 0 12.9-5.5 4.3-5.6 4.3-16.7t-4.3-16.6q-4.3-5.6-12.9-5.6zM170 67.94V91.3q-8.1-3.81-15.2-5.59-7.1-1.86-13.8-1.86-14.6 0-22.7 8.13-8.2 8.02-9.5 23.92 5.6-4.1 12.1-6.1 6.5-2.2 14.2-2.2 19.4 0 31.2 11.4 12 11.3 12 29.7 0 20.3-13.3 32.6-13.3 12.2-35.6 12.2-24.7 0-38.21-16.6-13.46-16.7-13.46-47.3 0-31.28 15.74-49.13 15.83-17.95 43.33-17.95 8.7 0 16.9 1.36 8.2 1.35 16.3 4.06z"></path></g></g></svg>