<svg xmlns="http://www.w3.org/2000/svg" viewBox="0 0 512 512" style="height: 512px; width: 512px;"><path d="M0 0h512v512H0z" fill="#000" fill-opacity="1"></path><g class="" transform="translate(0,0)" style=""><path d="M294.3 53.6l-81.2.24-79.5 70.56 18.3 70.5L201 187l-25.8 74.7 38.7-22.4 11 35.9 30.2-37.1 30.2 38.8 18.5-38.5 31.7 21.1-25.4-71.9 46.4 6.1 18.9-67.1c-27.1-24.3-54.1-48.7-81.1-73zm-88.8 61.2c13.3-.1 28.3 9 35.9 27l-61.9 9.3c-3.9-18.1 11-35.7 26-36.3zm104.5 0c15.1.1 28.1 12.1 26 36.3l-62-9.3c7.7-18 22.7-27.1 36-27zm-54.5 38.5l25.6 56.7h-47.9zM93.26 288.5L51.3 317.7l207.3 72.7L466 317.3l-41-28.8c-54.7 9.2-120.6-14.4-150.7 31.8h-31.4c-41-45.7-104.5-25.2-149.64-31.8zM29 329.8l-6.17 17.6 190.67 66.7v17.8h91.6v-18.7c62.3-21.8 125.5-43.9 188.1-65.8l-6.2-17.6-205.7 71.9 4.1 11.5h-54.8l4.1-11.5c-68.6-24-137.15-48-205.7-71.9z" fill="#fff" fill-opacity="1"></path></g><g class="" transform="translate(-1,313)" style=""><g transform="translate(9.6, 9.6) scale(0.7, 0.7) rotate(0, 128, 128)"><circle cx="128" cy="128" r="128" fill="#c70000" fill-opacity="1"></circle><circle stroke="#fff" stroke-opacity="1" fill="#c70000" fill-opacity="1" stroke-width="18" cx="128" cy="128" r="101"></circle><path fill="#fff" fill-opacity="1" d="M128.1 134.6q-9.1 0-14 5t-4.9 14.3q0 9.3 4.9 14.3 4.9 4.9 14 4.9t13.9-4.9q4.8-5 4.8-14.3 0-9.4-4.8-14.3-4.8-5-13.9-5zm-23.8-10.8q-11.47-3.5-17.31-10.6-5.84-7.2-5.84-17.99 0-16 11.94-24.38 11.91-8.38 35.01-8.38 23 0 34.9 8.38 11.9 8.3 11.9 24.38 0 10.79-5.9 17.99-5.8 7.1-17.3 10.6 12.8 3.6 19.3 11.6 6.6 8 6.6 20.2 0 18.7-12.5 28.4-12.4 9.6-37 9.6T90.89 184q-12.53-9.7-12.53-28.4 0-12.2 6.52-20.2 6.6-8 19.42-11.6zm7.7-25.29q0 7.49 4.1 11.59 4.2 4.1 12 4.1 7.6 0 11.8-4.1 4.1-4.1 4.1-11.59 0-7.53-4.1-11.51-4.2-4.06-11.8-4.06-7.8 0-12 4.06-4.1 4.06-4.1 11.51z"></path></g></g></svg>